<mxfile host="app.diagrams.net" agent="Mozilla/5.0 (Windows NT 10.0; Win64; x64) AppleWebKit/537.36 (KHTML, like Gecko) Chrome/127.0.0.0 Safari/537.36 OPR/113.0.0.0" version="24.7.17">
  <diagram id="C5RBs43oDa-KdzZeNtuy" name="Page-1">
    <mxGraphModel dx="1682" dy="928" grid="1" gridSize="10" guides="1" tooltips="1" connect="1" arrows="1" fold="1" page="1" pageScale="1" pageWidth="827" pageHeight="1169" math="0" shadow="0">
      <root>
        <mxCell id="WIyWlLk6GJQsqaUBKTNV-0" />
        <mxCell id="WIyWlLk6GJQsqaUBKTNV-1" parent="WIyWlLk6GJQsqaUBKTNV-0" />
        <mxCell id="5Emr1b_hVmr1KQayflEi-0" value="" style="edgeStyle=orthogonalEdgeStyle;rounded=0;orthogonalLoop=1;jettySize=auto;html=1;" edge="1" parent="WIyWlLk6GJQsqaUBKTNV-1" source="5Emr1b_hVmr1KQayflEi-1" target="5Emr1b_hVmr1KQayflEi-3">
          <mxGeometry relative="1" as="geometry" />
        </mxCell>
        <mxCell id="5Emr1b_hVmr1KQayflEi-1" value="Початок" style="ellipse;whiteSpace=wrap;html=1;" vertex="1" parent="WIyWlLk6GJQsqaUBKTNV-1">
          <mxGeometry x="120" y="50" width="120" height="80" as="geometry" />
        </mxCell>
        <mxCell id="5Emr1b_hVmr1KQayflEi-2" value="" style="edgeStyle=orthogonalEdgeStyle;rounded=0;orthogonalLoop=1;jettySize=auto;html=1;" edge="1" parent="WIyWlLk6GJQsqaUBKTNV-1" source="5Emr1b_hVmr1KQayflEi-3" target="5Emr1b_hVmr1KQayflEi-5">
          <mxGeometry relative="1" as="geometry" />
        </mxCell>
        <mxCell id="5Emr1b_hVmr1KQayflEi-3" value="P, r, t,&lt;div&gt;option_month,&lt;/div&gt;&lt;div&gt;option_quarter,&lt;/div&gt;&lt;div&gt;option_year&lt;/div&gt;" style="shape=internalStorage;whiteSpace=wrap;html=1;backgroundOutline=1;" vertex="1" parent="WIyWlLk6GJQsqaUBKTNV-1">
          <mxGeometry x="90" y="170" width="180" height="120" as="geometry" />
        </mxCell>
        <mxCell id="5Emr1b_hVmr1KQayflEi-4" value="" style="edgeStyle=orthogonalEdgeStyle;rounded=0;orthogonalLoop=1;jettySize=auto;html=1;" edge="1" parent="WIyWlLk6GJQsqaUBKTNV-1" source="5Emr1b_hVmr1KQayflEi-5" target="5Emr1b_hVmr1KQayflEi-7">
          <mxGeometry relative="1" as="geometry" />
        </mxCell>
        <mxCell id="5Emr1b_hVmr1KQayflEi-5" value="Input: P, r, t" style="shape=parallelogram;perimeter=parallelogramPerimeter;whiteSpace=wrap;html=1;fixedSize=1;" vertex="1" parent="WIyWlLk6GJQsqaUBKTNV-1">
          <mxGeometry x="120" y="330" width="120" height="60" as="geometry" />
        </mxCell>
        <mxCell id="5Emr1b_hVmr1KQayflEi-6" value="" style="edgeStyle=orthogonalEdgeStyle;rounded=0;orthogonalLoop=1;jettySize=auto;html=1;" edge="1" parent="WIyWlLk6GJQsqaUBKTNV-1" source="5Emr1b_hVmr1KQayflEi-7" target="5Emr1b_hVmr1KQayflEi-9">
          <mxGeometry relative="1" as="geometry" />
        </mxCell>
        <mxCell id="5Emr1b_hVmr1KQayflEi-7" value="&lt;p style=&quot;line-height: 50%; white-space: pre;&quot;&gt;&lt;font style=&quot;font-size: 12px; background-color: rgb(255, 255, 255);&quot; face=&quot;Helvetica&quot;&gt;option_month = P * (1+(r/12.0))&lt;sup&gt;12.0*t&lt;/sup&gt;&lt;/font&gt;&lt;/p&gt;&lt;p style=&quot;line-height: 50%; white-space: pre;&quot;&gt;&lt;span style=&quot;background-color: rgb(255, 255, 255);&quot;&gt;&lt;span style=&quot;font-family: Consolas, &amp;quot;Courier New&amp;quot;, monospace;&quot;&gt;option_quarter = P * &lt;/span&gt;&lt;span style=&quot;font-family: Consolas, &amp;quot;Courier New&amp;quot;, monospace;&quot;&gt;(&lt;/span&gt;&lt;span style=&quot;font-family: Consolas, &amp;quot;Courier New&amp;quot;, monospace;&quot;&gt;1&lt;/span&gt;&lt;span style=&quot;font-family: Consolas, &amp;quot;Courier New&amp;quot;, monospace;&quot;&gt;+(r/&lt;/span&gt;&lt;span style=&quot;font-family: Consolas, &amp;quot;Courier New&amp;quot;, monospace;&quot;&gt;4.0&lt;/span&gt;&lt;span style=&quot;font-family: Consolas, &amp;quot;Courier New&amp;quot;, monospace;&quot;&gt;))&lt;/span&gt;&lt;sup&gt;&lt;span style=&quot;font-family: Consolas, &amp;quot;Courier New&amp;quot;, monospace;&quot;&gt;4.0&lt;/span&gt;&lt;span style=&quot;font-family: Consolas, &amp;quot;Courier New&amp;quot;, monospace;&quot;&gt;*t&lt;/span&gt;&lt;/sup&gt;&lt;/span&gt;&lt;/p&gt;&lt;div style=&quot;font-family: Consolas, &amp;quot;Courier New&amp;quot;, monospace; line-height: 50%; white-space: pre;&quot;&gt;&lt;p style=&quot;line-height: 50%;&quot;&gt;&lt;font style=&quot;font-size: 12px; background-color: rgb(255, 255, 255);&quot;&gt;option_year = P * (1+r)&lt;sup&gt;t&lt;/sup&gt;&lt;/font&gt;&lt;/p&gt;&lt;/div&gt;" style="rounded=1;whiteSpace=wrap;html=1;align=center;" vertex="1" parent="WIyWlLk6GJQsqaUBKTNV-1">
          <mxGeometry x="50" y="430" width="260" height="80" as="geometry" />
        </mxCell>
        <mxCell id="5Emr1b_hVmr1KQayflEi-8" value="" style="edgeStyle=orthogonalEdgeStyle;rounded=0;orthogonalLoop=1;jettySize=auto;html=1;" edge="1" parent="WIyWlLk6GJQsqaUBKTNV-1" source="5Emr1b_hVmr1KQayflEi-9" target="5Emr1b_hVmr1KQayflEi-10">
          <mxGeometry relative="1" as="geometry" />
        </mxCell>
        <mxCell id="5Emr1b_hVmr1KQayflEi-9" value="Output: P, r, t&lt;div&gt;option_month&lt;/div&gt;&lt;div&gt;option_quarter&lt;/div&gt;&lt;div&gt;option_year&lt;/div&gt;" style="shape=parallelogram;perimeter=parallelogramPerimeter;whiteSpace=wrap;html=1;fixedSize=1;" vertex="1" parent="WIyWlLk6GJQsqaUBKTNV-1">
          <mxGeometry x="80" y="550" width="200" height="80" as="geometry" />
        </mxCell>
        <mxCell id="5Emr1b_hVmr1KQayflEi-10" value="Кінець" style="ellipse;whiteSpace=wrap;html=1;" vertex="1" parent="WIyWlLk6GJQsqaUBKTNV-1">
          <mxGeometry x="120" y="670" width="120" height="80" as="geometry" />
        </mxCell>
      </root>
    </mxGraphModel>
  </diagram>
</mxfile>
